<svg width="1440" height="768" viewBox="0 0 1440 768" fill="none" xmlns="http://www.w3.org/2000/svg">
<rect width="1440" height="668" fill="#3090A1"/>
<path d="M1387.39 618.418L1440 567V668H1340L1387.39 618.418Z" fill="#B1D2DA" fill-opacity="0.7"/>
<path d="M1391.42 720.609L1340 668H1441V768L1391.42 720.609Z" fill="#3090A1"/>
<path d="M1391.42 720.609L1340 668H1441V768L1391.42 720.609Z" fill="#B1D2DA" fill-opacity="0.7"/>
<path d="M1269.39 618.418L1322 567V668H1222L1269.39 618.418Z" fill="#B1D2DA" fill-opacity="0.7"/>
<path d="M1383.61 612.582L1331 664V563H1431L1383.61 612.582Z" fill="#B1D2DA" fill-opacity="0.7"/>
<path d="M1151.39 618.418L1204 567V668H1104L1151.39 618.418Z" fill="#B1D2DA" fill-opacity="0.7"/>
<path d="M1147.61 612.582L1095 664V563H1195L1147.61 612.582Z" fill="#B1D2DA" fill-opacity="0.7"/>
<path d="M1033.39 618.418L1086 567V668H986L1033.39 618.418Z" fill="#BC5148" fill-opacity="0.7"/>
<path d="M1029.61 612.582L977 664V563H1077L1029.61 612.582Z" fill="#B1D2DA" fill-opacity="0.7"/>
<path d="M915.391 618.418L968 567V668H868L915.391 618.418Z" fill="#B1D2DA" fill-opacity="0.7"/>
<path d="M911.609 612.582L859 664V563H959L911.609 612.582Z" fill="#B1D2DA" fill-opacity="0.6"/>
<path d="M1387.39 508.418L1440 457V558H1340L1387.39 508.418Z" fill="#3F656F" fill-opacity="0.7"/>
<path d="M1260.39 508.418L1313 457V558H1213L1260.39 508.418Z" fill="#B1D2DA" fill-opacity="0.7"/>
<path d="M1377.77 506.582L1322 558V457H1428L1377.77 506.582Z" fill="#B1D2DA" fill-opacity="0.7"/>
<path d="M1265.61 612.582L1213 664V563H1313L1265.61 612.582Z" fill="#EFBEAB" fill-opacity="0.7"/>
<rect x="1172" y="271" width="1" height="63" fill="#3090A1"/>
</svg>
