<svg width="413" height="241" viewBox="0 0 413 241" fill="none" xmlns="http://www.w3.org/2000/svg">
<path d="M375.122 205.164L413 168V241H341L375.122 205.164Z" fill="#B1D2DA" fill-opacity="0.7"/>
<path d="M289.596 205.164L328 168V241H255L289.596 205.164Z" fill="#B1D2DA" fill-opacity="0.7"/>
<path d="M371.878 200.836L334 238V165H406L371.878 200.836Z" fill="#B1D2DA" fill-opacity="0.7"/>
<path d="M204.122 205.164L242 168V241H170L204.122 205.164Z" fill="#B1D2DA" fill-opacity="0.7"/>
<path d="M201.878 200.836L164 238V165H236L201.878 200.836Z" fill="#B1D2DA" fill-opacity="0.7"/>
<path d="M119.122 205.164L157 168V241H85L119.122 205.164Z" fill="#BC5148" fill-opacity="0.7"/>
<path d="M116.404 200.836L78 238L78 165H151L116.404 200.836Z" fill="#B1D2DA" fill-opacity="0.7"/>
<path d="M34.1217 205.164L72 168V241H0L34.1217 205.164Z" fill="#B1D2DA" fill-opacity="0.7"/>
<path d="M286.878 200.836L249 238V165H321L286.878 200.836Z" fill="#EFBEAB" fill-opacity="0.7"/>
<path d="M375.122 124.164L413 87V160H341L375.122 124.164Z" fill="#B1D2DA" fill-opacity="0.7"/>
<path d="M289.596 124.164L328 87V160H255L289.596 124.164Z" fill="#B1D2DA" fill-opacity="0.7"/>
<path d="M371.878 119.836L334 157V84L406 84L371.878 119.836Z" fill="#3F656F" fill-opacity="0.7"/>
<path d="M204.122 124.164L242 87V160H170L204.122 124.164Z" fill="#BC5148" fill-opacity="0.7"/>
<path d="M201.878 119.836L164 157V84L236 84L201.878 119.836Z" fill="#B1D2DA" fill-opacity="0.7"/>
<path d="M286.878 119.836L249 157V84L321 84L286.878 119.836Z" fill="#B1D2DA" fill-opacity="0.7"/>
<path d="M375.122 40.1636L413 3V76H341L375.122 40.1636Z" fill="#3F656F" fill-opacity="0.7"/>
<path d="M289.596 40.1636L328 3V76H255L289.596 40.1636Z" fill="#EFBEAB" fill-opacity="0.7"/>
<path d="M371.878 35.8364L334 73V0L406 0L371.878 35.8364Z" fill="#B1D2DA" fill-opacity="0.7"/>
<path d="M286.878 35.8364L249 73V0L321 0L286.878 35.8364Z" fill="#B1D2DA" fill-opacity="0.7"/>
</svg>
