<svg width="221" height="584" viewBox="0 0 221 584" fill="none" xmlns="http://www.w3.org/2000/svg">
<path d="M52.7564 529.72L104.127 582.375L3.12723 582.284L3.21733 482.284L52.7564 529.72Z" fill="#B1D2DA" fill-opacity="0.7"/>
<path d="M52.8629 411.72L104.234 464.375L3.23368 464.284L3.32377 364.284L52.8629 411.72Z" fill="#B1D2DA" fill-opacity="0.7"/>
<path d="M58.5961 525.943L7.22535 473.288L108.225 473.379L108.135 573.379L58.5961 525.943Z" fill="#B1D2DA" fill-opacity="0.7"/>
<path d="M52.9688 293.721L104.34 346.376L3.33963 346.285L3.42973 246.285L52.9688 293.721Z" fill="#B1D2DA" fill-opacity="0.7"/>
<path d="M58.8085 289.943L7.43775 237.288L108.438 237.379L108.348 337.379L58.8085 289.943Z" fill="#B1D2DA" fill-opacity="0.7"/>
<path d="M53.0753 175.72L104.446 228.375L3.44608 228.284L3.53617 128.284L53.0753 175.72Z" fill="#BC5148" fill-opacity="0.7"/>
<path d="M58.915 171.943L7.54419 119.288L108.544 119.379L108.454 219.379L58.915 171.943Z" fill="#B1D2DA" fill-opacity="0.7"/>
<path d="M53.1817 57.7204L104.552 110.375L3.55252 110.284L3.64262 10.2845L53.1817 57.7204Z" fill="#B1D2DA" fill-opacity="0.7"/>
<path d="M59.0214 53.9434L7.65064 1.28838L108.651 1.37937L108.561 101.379L59.0214 53.9434Z" fill="#B1D2DA" fill-opacity="0.6"/>
<path d="M162.756 529.82L214.127 582.475L113.127 582.384L113.217 482.384L162.756 529.82Z" fill="#3F656F" fill-opacity="0.7"/>
<path d="M162.871 402.82L214.241 455.475L113.241 455.384L113.332 355.384L162.871 402.82Z" fill="#B1D2DA" fill-opacity="0.7"/>
<path d="M164.601 520.195L113.233 464.384L214.233 464.475L214.138 570.475L164.601 520.195Z" fill="#B1D2DA" fill-opacity="0.7"/>
<path d="M58.7021 407.943L7.3313 355.288L108.331 355.379L108.241 455.379L58.7021 407.943Z" fill="#EFBEAB" fill-opacity="0.7"/>
<rect x="2.69043" y="0.0368652" width="218.278" height="581.985" transform="rotate(0.264879 2.69043 0.0368652)" fill="white" fill-opacity="0.8"/>
</svg>
