<svg width="584" height="221" viewBox="0 0 584 221" fill="none" xmlns="http://www.w3.org/2000/svg">
<path d="M529.72 168.244L582.375 116.873L582.284 217.873L482.284 217.783L529.72 168.244Z" fill="#B1D2DA" fill-opacity="0.7"/>
<path d="M411.72 168.137L464.375 116.766L464.284 217.766L364.284 217.676L411.72 168.137Z" fill="#B1D2DA" fill-opacity="0.7"/>
<path d="M525.943 162.404L473.288 213.775L473.379 112.775L573.379 112.865L525.943 162.404Z" fill="#B1D2DA" fill-opacity="0.7"/>
<path d="M293.721 168.031L346.376 116.66L346.285 217.66L246.285 217.57L293.721 168.031Z" fill="#B1D2DA" fill-opacity="0.7"/>
<path d="M289.943 162.191L237.288 213.562L237.379 112.562L337.379 112.652L289.943 162.191Z" fill="#B1D2DA" fill-opacity="0.7"/>
<path d="M175.72 167.925L228.375 116.554L228.284 217.554L128.284 217.464L175.72 167.925Z" fill="#BC5148" fill-opacity="0.7"/>
<path d="M171.943 162.085L119.288 213.456L119.379 112.456L219.379 112.546L171.943 162.085Z" fill="#B1D2DA" fill-opacity="0.7"/>
<path d="M57.7204 167.818L110.375 116.448L110.284 217.448L10.2845 217.358L57.7204 167.818Z" fill="#B1D2DA" fill-opacity="0.7"/>
<path d="M53.9431 161.979L1.28813 213.349L1.37913 112.35L101.379 112.44L53.9431 161.979Z" fill="#B1D2DA" fill-opacity="0.6"/>
<path d="M529.82 58.2437L582.475 6.87293L582.384 107.873L482.384 107.783L529.82 58.2437Z" fill="#3F656F" fill-opacity="0.7"/>
<path d="M402.82 58.1293L455.475 6.75855L455.384 107.759L355.384 107.668L402.82 58.1293Z" fill="#B1D2DA" fill-opacity="0.7"/>
<path d="M520.195 56.3988L464.384 107.767L464.475 6.76672L570.475 6.86222L520.195 56.3988Z" fill="#B1D2DA" fill-opacity="0.7"/>
<path d="M407.943 162.298L355.288 213.668L355.379 112.668L455.379 112.759L407.943 162.298Z" fill="#EFBEAB" fill-opacity="0.7"/>
<rect x="0.0371094" y="218.309" width="218.278" height="581.985" transform="rotate(-89.7351 0.0371094 218.309)" fill="white" fill-opacity="0.8"/>
</svg>
