<svg width="222" height="587" viewBox="0 0 222 587" fill="none" xmlns="http://www.w3.org/2000/svg">
<path d="M62.2436 54.2796L10.8728 1.62457L111.873 1.71557L111.783 101.716L62.2436 54.2796Z" fill="#B1D2DA" fill-opacity="0.7"/>
<path d="M62.1371 172.28L10.7664 119.625L111.766 119.716L111.676 219.716L62.1371 172.28Z" fill="#B1D2DA" fill-opacity="0.7"/>
<path d="M56.4039 58.0569L107.775 110.712L6.77469 110.621L6.86479 10.6209L56.4039 58.0569Z" fill="#B1D2DA" fill-opacity="0.7"/>
<path d="M62.0312 290.279L10.6604 237.624L111.66 237.715L111.57 337.715L62.0312 290.279Z" fill="#B1D2DA" fill-opacity="0.7"/>
<path d="M56.1915 294.057L107.562 346.712L6.56229 346.621L6.65238 246.621L56.1915 294.057Z" fill="#B1D2DA" fill-opacity="0.7"/>
<path d="M61.9247 408.28L10.554 355.625L111.554 355.716L111.464 455.716L61.9247 408.28Z" fill="#BC5148" fill-opacity="0.7"/>
<path d="M56.085 412.057L107.456 464.712L6.45585 464.621L6.54594 364.621L56.085 412.057Z" fill="#B1D2DA" fill-opacity="0.7"/>
<path d="M61.8183 526.28L10.4475 473.625L111.447 473.716L111.357 573.716L61.8183 526.28Z" fill="#B1D2DA" fill-opacity="0.7"/>
<path d="M55.9788 530.057L107.35 582.712L6.34964 582.621L6.43974 482.621L55.9788 530.057Z" fill="#B1D2DA" fill-opacity="0.6"/>
<path d="M56.2977 176.057L107.668 228.712L6.66849 228.621L6.75859 128.621L56.2977 176.057Z" fill="#EFBEAB" fill-opacity="0.7"/>
<rect x="219.258" y="586.89" width="218.278" height="585.887" transform="rotate(-179.735 219.258 586.89)" fill="white" fill-opacity="0.8"/>
</svg>
