<svg width="584" height="221" viewBox="0 0 584 221" fill="none" xmlns="http://www.w3.org/2000/svg">
<path d="M54.2796 52.7564L1.62456 104.127L1.71555 3.12723L101.716 3.21733L54.2796 52.7564Z" fill="#B1D2DA" fill-opacity="0.7"/>
<path d="M172.28 52.8628L119.625 104.234L119.716 3.23356L219.716 3.32365L172.28 52.8628Z" fill="#B1D2DA" fill-opacity="0.7"/>
<path d="M58.0569 58.5961L110.712 7.22535L110.621 108.225L10.6209 108.135L58.0569 58.5961Z" fill="#B1D2DA" fill-opacity="0.7"/>
<path d="M290.279 52.969L237.624 104.34L237.715 3.33976L337.715 3.42985L290.279 52.969Z" fill="#B1D2DA" fill-opacity="0.7"/>
<path d="M294.057 58.8086L346.712 7.43787L346.621 108.438L246.621 108.348L294.057 58.8086Z" fill="#B1D2DA" fill-opacity="0.7"/>
<path d="M408.28 53.0753L355.625 104.446L355.716 3.44608L455.716 3.53617L408.28 53.0753Z" fill="#BC5148" fill-opacity="0.7"/>
<path d="M412.057 58.915L464.712 7.54419L464.621 108.544L364.621 108.454L412.057 58.915Z" fill="#B1D2DA" fill-opacity="0.7"/>
<path d="M526.28 53.1816L473.625 104.552L473.716 3.5524L573.716 3.6425L526.28 53.1816Z" fill="#B1D2DA" fill-opacity="0.7"/>
<path d="M530.057 59.0213L582.712 7.65052L582.621 108.65L482.621 108.56L530.057 59.0213Z" fill="#B1D2DA" fill-opacity="0.6"/>
<path d="M54.1804 162.756L1.52544 214.127L1.61643 113.127L101.616 113.217L54.1804 162.756Z" fill="#3F656F" fill-opacity="0.7"/>
<path d="M181.18 162.871L128.525 214.241L128.616 113.241L228.616 113.332L181.18 162.871Z" fill="#B1D2DA" fill-opacity="0.7"/>
<path d="M63.8046 164.601L119.616 113.233L119.525 214.233L13.5252 214.138L63.8046 164.601Z" fill="#B1D2DA" fill-opacity="0.7"/>
<path d="M176.057 58.7023L228.712 7.33155L228.621 108.332L128.621 108.241L176.057 58.7023Z" fill="#EFBEAB" fill-opacity="0.7"/>
<rect x="583.963" y="2.69051" width="218.278" height="581.985" transform="rotate(90.2649 583.963 2.69051)" fill="white" fill-opacity="0.8"/>
</svg>
