<svg width="221" height="584" viewBox="0 0 221 584" fill="none" xmlns="http://www.w3.org/2000/svg">
<path d="M168.244 54.2796L116.873 1.62457L217.873 1.71557L217.783 101.716L168.244 54.2796Z" fill="#B1D2DA" fill-opacity="0.7"/>
<path d="M168.137 172.28L116.766 119.625L217.766 119.716L217.676 219.716L168.137 172.28Z" fill="#B1D2DA" fill-opacity="0.7"/>
<path d="M162.404 58.0569L213.775 110.712L112.775 110.621L112.865 10.6209L162.404 58.0569Z" fill="#B1D2DA" fill-opacity="0.7"/>
<path d="M168.031 290.279L116.66 237.624L217.66 237.715L217.57 337.715L168.031 290.279Z" fill="#B1D2DA" fill-opacity="0.7"/>
<path d="M162.191 294.057L213.562 346.712L112.562 346.621L112.652 246.621L162.191 294.057Z" fill="#B1D2DA" fill-opacity="0.7"/>
<path d="M167.925 408.28L116.554 355.625L217.554 355.716L217.464 455.716L167.925 408.28Z" fill="#BC5148" fill-opacity="0.7"/>
<path d="M162.085 412.057L213.456 464.712L112.456 464.621L112.546 364.621L162.085 412.057Z" fill="#B1D2DA" fill-opacity="0.7"/>
<path d="M167.818 526.28L116.448 473.625L217.447 473.716L217.357 573.716L167.818 526.28Z" fill="#B1D2DA" fill-opacity="0.7"/>
<path d="M161.979 530.057L213.35 582.712L112.35 582.621L112.44 482.621L161.979 530.057Z" fill="#B1D2DA" fill-opacity="0.6"/>
<path d="M58.2436 54.1804L6.87281 1.52545L107.873 1.61645L107.783 101.616L58.2436 54.1804Z" fill="#3F656F" fill-opacity="0.7"/>
<path d="M58.1293 181.18L6.75855 128.525L107.759 128.616L107.668 228.616L58.1293 181.18Z" fill="#B1D2DA" fill-opacity="0.7"/>
<path d="M56.3989 63.8047L107.767 119.616L6.76685 119.525L6.86234 13.5252L56.3989 63.8047Z" fill="#B1D2DA" fill-opacity="0.7"/>
<path d="M162.298 176.057L213.668 228.712L112.668 228.621L112.759 128.621L162.298 176.057Z" fill="#EFBEAB" fill-opacity="0.7"/>
<rect x="218.31" y="583.963" width="218.278" height="581.985" transform="rotate(-179.735 218.31 583.963)" fill="white" fill-opacity="0.8"/>
</svg>
