<svg width="420" height="241" viewBox="0 0 420 241" fill="none" xmlns="http://www.w3.org/2000/svg">
<path d="M382.122 205.164L420 168V241H348L382.122 205.164Z" fill="#B1D2DA" fill-opacity="0.7"/>
<path d="M382.122 37.1636L420 0V73H348L382.122 37.1636Z" fill="#B1D2DA" fill-opacity="0.7"/>
<path d="M296.596 205.164L335 168V241H262L296.596 205.164Z" fill="#B1D2DA" fill-opacity="0.7"/>
<path d="M378.878 200.836L341 238V165H413L378.878 200.836Z" fill="#B1D2DA" fill-opacity="0.7"/>
<path d="M211.122 205.164L249 168V241H177L211.122 205.164Z" fill="#B1D2DA" fill-opacity="0.7"/>
<path d="M208.878 200.836L171 238V165H243L208.878 200.836Z" fill="#B1D2DA" fill-opacity="0.7"/>
<path d="M126.122 205.164L164 168V241H92L126.122 205.164Z" fill="#BC5148" fill-opacity="0.7"/>
<path d="M123.404 200.836L85 238L85 165H158L123.404 200.836Z" fill="#B1D2DA" fill-opacity="0.7"/>
<path d="M41.1217 205.164L79 168V241H7L41.1217 205.164Z" fill="#B1D2DA" fill-opacity="0.7"/>
<path d="M37.8783 200.836L0 238L0 165H72L37.8783 200.836Z" fill="#B1D2DA" fill-opacity="0.6"/>
<path d="M293.878 200.836L256 238V165H328L293.878 200.836Z" fill="#EFBEAB" fill-opacity="0.7"/>
<path d="M382.122 121.164L420 84V157H348L382.122 121.164Z" fill="#3F656F" fill-opacity="0.7"/>
<path d="M296.596 121.164L335 84V157H262L296.596 121.164Z" fill="#B1D2DA" fill-opacity="0.7"/>
<path d="M378.878 116.836L341 154V81L413 81L378.878 116.836Z" fill="#B1D2DA" fill-opacity="0.7"/>
<path d="M293.878 116.836L256 154V81L328 81L293.878 116.836Z" fill="#B1D2DA" fill-opacity="0.7"/>
</svg>
