<svg width="419" height="238" viewBox="0 0 419 238" fill="none" xmlns="http://www.w3.org/2000/svg">
<path d="M381.122 202.164L419 165V238H347L381.122 202.164Z" fill="#3F656F" fill-opacity="0.7"/>
<path d="M295.596 202.164L334 165V238H261L295.596 202.164Z" fill="#B1D2DA" fill-opacity="0.7"/>
<path d="M377.878 197.836L340 235V162H412L377.878 197.836Z" fill="#B1D2DA" fill-opacity="0.7"/>
<path d="M210.122 202.164L248 165V238H176L210.122 202.164Z" fill="#B1D2DA" fill-opacity="0.7"/>
<path d="M207.878 197.836L170 235V162H242L207.878 197.836Z" fill="#B1D2DA" fill-opacity="0.7"/>
<path d="M292.878 197.836L255 235V162H327L292.878 197.836Z" fill="#EFBEAB" fill-opacity="0.7"/>
<path d="M381.122 121.164L419 84V157H347L381.122 121.164Z" fill="#B1D2DA" fill-opacity="0.7"/>
<path d="M295.596 121.164L334 84V157H261L295.596 121.164Z" fill="#BC5148" fill-opacity="0.7"/>
<path d="M377.878 116.836L340 154V81L412 81L377.878 116.836Z" fill="#B1D2DA" fill-opacity="0.7"/>
<path d="M292.878 116.836L255 154V81L327 81L292.878 116.836Z" fill="#B1D2DA" fill-opacity="0.7"/>
<path d="M380.596 40.1636L419 3V76H346L380.596 40.1636Z" fill="#B1D2DA" fill-opacity="0.7"/>
<path d="M377.878 35.8364L340 73V0L412 0L377.878 35.8364Z" fill="#EFBEAB" fill-opacity="0.7"/>
<path d="M210.596 121.164L249 84V157H176L210.596 121.164Z" fill="#B1D2DA" fill-opacity="0.7"/>
<path d="M125.596 202.164L164 165V238H91L125.596 202.164Z" fill="#B1D2DA" fill-opacity="0.7"/>
<path d="M40.1217 202.164L78 165V238H6L40.1217 202.164Z" fill="#3F656F" fill-opacity="0.7"/>
<path d="M37.8783 197.836L0 235L0 162H72L37.8783 197.836Z" fill="#B1D2DA" fill-opacity="0.7"/>
<path d="M122.878 197.836L85 235L85 162H157L122.878 197.836Z" fill="#B1D2DA" fill-opacity="0.7"/>
<path d="M125.596 202.164L164 165V238H91L125.596 202.164Z" fill="#B1D2DA" fill-opacity="0.7"/>
<path d="M37.8783 197.836L0 235L0 162H72L37.8783 197.836Z" fill="#B1D2DA" fill-opacity="0.7"/>
<path d="M122.878 197.836L85 235L85 162H157L122.878 197.836Z" fill="#B1D2DA" fill-opacity="0.7"/>
</svg>
