<svg width="581" height="211" viewBox="0 0 581 211" fill="none" xmlns="http://www.w3.org/2000/svg">
<path d="M528.391 161.418L581 110V211H481L528.391 161.418Z" fill="#B1D2DA" fill-opacity="0.7"/>
<path d="M410.391 161.418L463 110V211H363L410.391 161.418Z" fill="#B1D2DA" fill-opacity="0.7"/>
<path d="M524.609 155.582L472 207V106L572 106L524.609 155.582Z" fill="#B1D2DA" fill-opacity="0.7"/>
<path d="M292.391 161.418L345 110V211H245L292.391 161.418Z" fill="#B1D2DA" fill-opacity="0.7"/>
<path d="M288.609 155.582L236 207V106L336 106L288.609 155.582Z" fill="#B1D2DA" fill-opacity="0.7"/>
<path d="M174.391 161.418L227 110V211H127L174.391 161.418Z" fill="#BC5148" fill-opacity="0.7"/>
<path d="M170.609 155.582L118 207L118 106L218 106L170.609 155.582Z" fill="#B1D2DA" fill-opacity="0.7"/>
<path d="M56.3913 161.418L109 110V211H9L56.3913 161.418Z" fill="#B1D2DA" fill-opacity="0.7"/>
<path d="M52.6087 155.582L3.27826e-06 207L3.27826e-06 106L100 106L52.6087 155.582Z" fill="#B1D2DA" fill-opacity="0.6"/>
<path d="M528.391 51.4182L581 0V101H481L528.391 51.4182Z" fill="#3F656F" fill-opacity="0.7"/>
<path d="M401.391 51.4182L454 0V101H354L401.391 51.4182Z" fill="#B1D2DA" fill-opacity="0.7"/>
<path d="M518.765 49.5818L463 101V-2.02656e-06L569 -2.02656e-06L518.765 49.5818Z" fill="#B1D2DA" fill-opacity="0.7"/>
<path d="M406.609 155.582L354 207V106L454 106L406.609 155.582Z" fill="#EFBEAB" fill-opacity="0.7"/>
</svg>
