<svg width="419" height="235" viewBox="0 0 419 235" fill="none" xmlns="http://www.w3.org/2000/svg">
<path d="M381.122 199.164L419 162V235H347L381.122 199.164Z" fill="#B1D2DA" fill-opacity="0.7"/>
<path d="M295.596 199.164L334 162V235H261L295.596 199.164Z" fill="#B1D2DA" fill-opacity="0.7"/>
<path d="M377.878 194.836L340 232V159H412L377.878 194.836Z" fill="#B1D2DA" fill-opacity="0.7"/>
<path d="M210.122 199.164L248 162V235H176L210.122 199.164Z" fill="#B1D2DA" fill-opacity="0.7"/>
<path d="M207.878 194.836L170 232V159H242L207.878 194.836Z" fill="#B1D2DA" fill-opacity="0.7"/>
<path d="M292.878 194.836L255 232V159H327L292.878 194.836Z" fill="#EFBEAB" fill-opacity="0.7"/>
<path d="M381.122 118.164L419 81V154H347L381.122 118.164Z" fill="#B1D2DA" fill-opacity="0.7"/>
<path d="M295.596 118.164L334 81V154H261L295.596 118.164Z" fill="#B1D2DA" fill-opacity="0.7"/>
<path d="M377.878 113.836L340 151V78L412 78L377.878 113.836Z" fill="#3F656F" fill-opacity="0.7"/>
<path d="M210.122 118.164L248 81V154H176L210.122 118.164Z" fill="#BC5148" fill-opacity="0.7"/>
<path d="M292.878 113.836L255 151V78L327 78L292.878 113.836Z" fill="#B1D2DA" fill-opacity="0.7"/>
<path d="M380.596 37.1636L419 0V73H346L380.596 37.1636Z" fill="#B1D2DA" fill-opacity="0.7"/>
<path d="M125.596 199.164L164 162V235H91L125.596 199.164Z" fill="#B1D2DA" fill-opacity="0.7"/>
<path d="M40.1217 199.164L78 162V235H6L40.1217 199.164Z" fill="#BC5148" fill-opacity="0.7"/>
<path d="M37.8783 194.836L7.15256e-07 232L7.15256e-07 159H72L37.8783 194.836Z" fill="#B1D2DA" fill-opacity="0.7"/>
<path d="M122.878 194.836L85 232L85 159H157L122.878 194.836Z" fill="#B1D2DA" fill-opacity="0.7"/>
</svg>
